<svg width="768" height="158" viewBox="0 0 768 158" fill="none" xmlns="http://www.w3.org/2000/svg">
<g style="mix-blend-mode:screen">
<path fill-rule="evenodd" clip-rule="evenodd" d="M0 0H158V158H0V115.928C20.3907 115.926 36.9199 99.3954 36.9199 79.0042C36.9199 58.613 20.3907 42.0824 0 42.0803V0ZM236.999 23.1934H288.151C326.286 23.1934 347.148 47.601 347.148 77.0539C347.148 112.78 320.502 134.811 287.575 134.811H236.999V23.1934ZM264.53 113.824H284.013C306.147 113.824 318.118 101.514 318.118 77.7804C318.118 57.1369 307.165 44.3256 284.374 44.0482H264.53V113.824ZM474.756 87.7125H411.607V113.177H481.826L478.773 134.811H384.251V23.1934H478.278V44.8803H411.715V66.0124H474.756V87.7125ZM565.134 95.7691L594.017 134.811L625.806 134.824L581.056 76.5389L623.382 23.2067H593.736L566.741 59.2502H566.581L539.8 23.1934H507.409L549.736 77.7672L506.11 134.811H536.774L564.8 95.7691H565.134ZM676.656 109.479L666.774 134.811H638.533L684.061 23.1934H719.277L767.188 134.811H737.488L726.963 109.479H676.656ZM719.344 87.7653C708.819 62.1822 703.691 49.1464 700.972 40.6275H700.812C698.281 48.9747 692.269 65.9464 683.766 87.7653H719.344Z" fill="white"/>
</g>
</svg>
